<svg width="96" height="21" viewBox="0 0 96 21" fill="none" xmlns="http://www.w3.org/2000/svg">
<path d="M2.44102 15.7783C2.38502 15.7783 2.33368 15.7597 2.28702 15.7223C2.24968 15.685 2.23102 15.643 2.23102 15.5963C2.23102 15.4937 2.30568 15.4237 2.45502 15.3863C2.77235 15.293 3.03835 15.2137 3.25302 15.1483C3.46768 15.0737 3.62635 14.971 3.72902 14.8403C3.84102 14.7003 3.89702 14.5043 3.89702 14.2523V9.00233C3.89702 8.81566 3.84102 8.67099 3.72902 8.56833C3.61702 8.46566 3.46768 8.39566 3.28102 8.35833C3.10368 8.31166 2.91235 8.27899 2.70702 8.26033C2.62302 8.25099 2.53902 8.22766 2.45502 8.19033C2.38035 8.14366 2.34302 8.07833 2.34302 7.99433C2.34302 7.91033 2.38035 7.84499 2.45502 7.79833C2.52968 7.74233 2.61835 7.70966 2.72102 7.70033C3.18768 7.64433 3.60302 7.56499 3.96702 7.46233C4.34035 7.35033 4.70902 7.14499 5.07302 6.84633C5.08235 6.83699 5.09635 6.83233 5.11502 6.83233C5.13368 6.82299 5.15235 6.81833 5.17102 6.81833C5.22702 6.81833 5.27368 6.83233 5.31102 6.86033C5.35768 6.88833 5.38102 6.92099 5.38102 6.95833C5.36235 7.08899 5.34368 7.23366 5.32502 7.39233C5.31568 7.55099 5.31102 7.73766 5.31102 7.95233V14.3783C5.31102 14.593 5.35768 14.761 5.45102 14.8823C5.55368 14.9943 5.70768 15.0877 5.91302 15.1623C6.12768 15.2277 6.40768 15.3023 6.75302 15.3863C6.81835 15.405 6.87435 15.433 6.92102 15.4703C6.96768 15.4983 6.99102 15.545 6.99102 15.6103C6.99102 15.7223 6.92568 15.7783 6.79502 15.7783C6.55235 15.7783 6.30502 15.769 6.05302 15.7503C5.81035 15.741 5.56768 15.7317 5.32502 15.7223C5.09168 15.713 4.85835 15.7083 4.62502 15.7083C4.39168 15.7083 4.15368 15.713 3.91102 15.7223C3.66835 15.7317 3.42102 15.741 3.16902 15.7503C2.92635 15.769 2.68368 15.7783 2.44102 15.7783ZM14.16 15.7783C14.104 15.7783 13.992 15.7737 13.824 15.7643C13.656 15.7643 13.46 15.7597 13.236 15.7503C13.0213 15.741 12.7973 15.7317 12.564 15.7223C12.3307 15.713 12.116 15.7083 11.92 15.7083C11.7333 15.7083 11.486 15.713 11.178 15.7223C10.8793 15.7317 10.5713 15.7363 10.254 15.7363C9.946 15.7457 9.67533 15.7503 9.442 15.7503C9.218 15.7597 9.07333 15.7643 9.008 15.7643C8.98 15.7643 8.924 15.7363 8.84 15.6803C8.76533 15.6243 8.728 15.573 8.728 15.5263C8.728 15.4703 8.742 15.4283 8.77 15.4003C8.798 15.3723 8.83067 15.3397 8.868 15.3023L11.136 12.8943C11.612 12.3903 11.99 11.849 12.27 11.2703C12.5593 10.6917 12.704 10.085 12.704 9.45033C12.704 8.99299 12.5733 8.62899 12.312 8.35833C12.0507 8.07833 11.724 7.93833 11.332 7.93833C10.968 7.93833 10.6273 8.04099 10.31 8.24633C10.002 8.44233 9.75 8.68966 9.554 8.98833C9.51667 9.04433 9.47 9.09566 9.414 9.14233C9.358 9.18899 9.29733 9.21233 9.232 9.21233C9.18533 9.21233 9.13867 9.17499 9.092 9.10033C9.05467 9.02566 9.036 8.93233 9.036 8.82033C9.036 8.69899 9.106 8.53566 9.246 8.33033C9.386 8.11566 9.582 7.90099 9.834 7.68633C10.086 7.47166 10.3847 7.28966 10.73 7.14033C11.0753 6.99099 11.4487 6.91633 11.85 6.91633C12.3167 6.91633 12.718 7.01899 13.054 7.22433C13.39 7.42033 13.6467 7.69566 13.824 8.05033C14.0013 8.39566 14.09 8.79233 14.09 9.24033C14.09 9.49233 14.0387 9.76766 13.936 10.0663C13.8427 10.365 13.7167 10.6543 13.558 10.9343C13.3993 11.2143 13.222 11.471 13.026 11.7043C12.9047 11.8537 12.7273 12.045 12.494 12.2783C12.27 12.5117 12.0273 12.759 11.766 13.0203C11.514 13.2723 11.2713 13.515 11.038 13.7483C10.8047 13.9723 10.6133 14.159 10.464 14.3083C10.324 14.4577 10.254 14.5417 10.254 14.5603C10.254 14.5977 10.3193 14.6257 10.45 14.6443C10.618 14.663 10.8047 14.677 11.01 14.6863C11.2247 14.6957 11.4533 14.7003 11.696 14.7003C11.948 14.7003 12.1953 14.6957 12.438 14.6863C12.69 14.677 12.9327 14.663 13.166 14.6443C13.418 14.6257 13.6187 14.5977 13.768 14.5603C13.9173 14.523 14.0433 14.453 14.146 14.3503C14.258 14.2477 14.3653 14.103 14.468 13.9163C14.5053 13.8603 14.5567 13.795 14.622 13.7203C14.6873 13.6457 14.7573 13.6083 14.832 13.6083C14.888 13.6083 14.9253 13.6317 14.944 13.6783C14.9627 13.725 14.9673 13.7717 14.958 13.8183C14.93 13.9303 14.8833 14.0797 14.818 14.2663C14.7527 14.453 14.6873 14.6537 14.622 14.8683C14.5567 15.0737 14.5053 15.2697 14.468 15.4563C14.4493 15.587 14.4027 15.6757 14.328 15.7223C14.2627 15.7597 14.2067 15.7783 14.16 15.7783Z" fill="#303341"/>
<path d="M24.3796 12.9883C24.2896 12.4723 23.9236 11.8243 23.2276 11.3023C22.8856 11.0443 22.5376 10.8763 22.1956 10.8043V10.5523C22.8736 10.3903 23.5396 9.93433 23.9656 9.31633C24.1816 9.00433 24.3196 8.69833 24.3796 8.38033H24.6316C24.7336 8.98633 25.2016 9.65833 25.8376 10.1083C26.1496 10.3303 26.4736 10.4803 26.8036 10.5523V10.8043C26.1376 10.9423 25.3636 11.5363 24.9796 12.1423C24.7876 12.4483 24.6736 12.7303 24.6316 12.9883H24.3796Z" fill="#303341"/>
<path d="M35.441 15.7783C35.385 15.7783 35.3337 15.7597 35.287 15.7223C35.2497 15.685 35.231 15.643 35.231 15.5963C35.231 15.4937 35.3057 15.4237 35.455 15.3863C35.7723 15.293 36.0383 15.2137 36.253 15.1483C36.4677 15.0737 36.6263 14.971 36.729 14.8403C36.841 14.7003 36.897 14.5043 36.897 14.2523V9.00233C36.897 8.81566 36.841 8.67099 36.729 8.56833C36.617 8.46566 36.4677 8.39566 36.281 8.35833C36.1037 8.31166 35.9123 8.27899 35.707 8.26033C35.623 8.25099 35.539 8.22766 35.455 8.19033C35.3803 8.14366 35.343 8.07833 35.343 7.99433C35.343 7.91033 35.3803 7.84499 35.455 7.79833C35.5297 7.74233 35.6183 7.70966 35.721 7.70033C36.1877 7.64433 36.603 7.56499 36.967 7.46233C37.3403 7.35033 37.709 7.14499 38.073 6.84633C38.0823 6.83699 38.0963 6.83233 38.115 6.83233C38.1337 6.82299 38.1523 6.81833 38.171 6.81833C38.227 6.81833 38.2737 6.83233 38.311 6.86033C38.3577 6.88833 38.381 6.92099 38.381 6.95833C38.3623 7.08899 38.3437 7.23366 38.325 7.39233C38.3157 7.55099 38.311 7.73766 38.311 7.95233V14.3783C38.311 14.593 38.3577 14.761 38.451 14.8823C38.5537 14.9943 38.7077 15.0877 38.913 15.1623C39.1277 15.2277 39.4077 15.3023 39.753 15.3863C39.8183 15.405 39.8743 15.433 39.921 15.4703C39.9677 15.4983 39.991 15.545 39.991 15.6103C39.991 15.7223 39.9257 15.7783 39.795 15.7783C39.5523 15.7783 39.305 15.769 39.053 15.7503C38.8103 15.741 38.5677 15.7317 38.325 15.7223C38.0917 15.713 37.8583 15.7083 37.625 15.7083C37.3917 15.7083 37.1537 15.713 36.911 15.7223C36.6683 15.7317 36.421 15.741 36.169 15.7503C35.9263 15.769 35.6837 15.7783 35.441 15.7783ZM44.64 15.9323C44.136 15.9323 43.6973 15.8017 43.324 15.5403C42.96 15.279 42.652 14.9337 42.4 14.5043C42.1573 14.0657 41.9753 13.585 41.854 13.0623C41.7327 12.5397 41.672 12.0217 41.672 11.5083C41.672 10.9763 41.7327 10.4397 41.854 9.89833C41.9753 9.35699 42.162 8.86233 42.414 8.41433C42.666 7.96633 42.988 7.60699 43.38 7.33633C43.772 7.05633 44.2433 6.91633 44.794 6.91633C45.298 6.91633 45.7367 7.04699 46.11 7.30833C46.4833 7.56966 46.7913 7.91966 47.034 8.35833C47.2767 8.78766 47.4587 9.26366 47.58 9.78633C47.7013 10.2997 47.762 10.8083 47.762 11.3123C47.762 11.835 47.7013 12.367 47.58 12.9083C47.468 13.4497 47.286 13.949 47.034 14.4063C46.782 14.8637 46.46 15.2323 46.068 15.5123C45.676 15.7923 45.2 15.9323 44.64 15.9323ZM44.878 15.4703C45.2233 15.4703 45.4987 15.2883 45.704 14.9243C45.9187 14.551 46.0727 14.0703 46.166 13.4823C46.2687 12.885 46.32 12.2457 46.32 11.5643C46.32 11.051 46.2827 10.547 46.208 10.0523C46.1333 9.55766 46.0213 9.10966 45.872 8.70833C45.7227 8.30699 45.536 7.98966 45.312 7.75633C45.088 7.51366 44.8313 7.39233 44.542 7.39233C44.1967 7.39233 43.9213 7.57433 43.716 7.93833C43.5107 8.29299 43.3613 8.76433 43.268 9.35233C43.1747 9.94033 43.128 10.575 43.128 11.2563C43.128 11.7697 43.1653 12.2783 43.24 12.7823C43.3147 13.2863 43.422 13.739 43.562 14.1403C43.7113 14.5417 43.8933 14.8637 44.108 15.1063C44.3227 15.349 44.5793 15.4703 44.878 15.4703Z" fill="#303341"/>
<path d="M57.3796 12.9883C57.2896 12.4723 56.9236 11.8243 56.2276 11.3023C55.8856 11.0443 55.5376 10.8763 55.1956 10.8043V10.5523C55.8736 10.3903 56.5396 9.93433 56.9656 9.31633C57.1816 9.00433 57.3196 8.69833 57.3796 8.38033H57.6316C57.7336 8.98633 58.2016 9.65833 58.8376 10.1083C59.1496 10.3303 59.4736 10.4803 59.8036 10.5523V10.8043C59.1376 10.9423 58.3636 11.5363 57.9796 12.1423C57.7876 12.4483 57.6736 12.7303 57.6316 12.9883H57.3796Z" fill="#303341"/>
<path d="M72.682 15.7783C72.626 15.7783 72.514 15.7737 72.346 15.7643C72.178 15.7643 71.982 15.7597 71.758 15.7503C71.5434 15.741 71.3194 15.7317 71.086 15.7223C70.8527 15.713 70.638 15.7083 70.442 15.7083C70.2554 15.7083 70.008 15.713 69.7 15.7223C69.4014 15.7317 69.0934 15.7363 68.776 15.7363C68.468 15.7457 68.1974 15.7503 67.964 15.7503C67.74 15.7597 67.5954 15.7643 67.53 15.7643C67.502 15.7643 67.446 15.7363 67.362 15.6803C67.2874 15.6243 67.25 15.573 67.25 15.5263C67.25 15.4703 67.264 15.4283 67.292 15.4003C67.32 15.3723 67.3527 15.3397 67.39 15.3023L69.658 12.8943C70.134 12.3903 70.512 11.849 70.792 11.2703C71.0814 10.6917 71.226 10.085 71.226 9.45033C71.226 8.99299 71.0954 8.62899 70.834 8.35833C70.5727 8.07833 70.246 7.93833 69.854 7.93833C69.49 7.93833 69.1494 8.04099 68.832 8.24633C68.524 8.44233 68.272 8.68966 68.076 8.98833C68.0387 9.04433 67.992 9.09566 67.936 9.14233C67.88 9.18899 67.8194 9.21233 67.754 9.21233C67.7074 9.21233 67.6607 9.17499 67.614 9.10033C67.5767 9.02566 67.558 8.93233 67.558 8.82033C67.558 8.69899 67.628 8.53566 67.768 8.33033C67.908 8.11566 68.104 7.90099 68.356 7.68633C68.608 7.47166 68.9067 7.28966 69.252 7.14033C69.5974 6.99099 69.9707 6.91633 70.372 6.91633C70.8387 6.91633 71.24 7.01899 71.576 7.22433C71.912 7.42033 72.1687 7.69566 72.346 8.05033C72.5234 8.39566 72.612 8.79233 72.612 9.24033C72.612 9.49233 72.5607 9.76766 72.458 10.0663C72.3647 10.365 72.2387 10.6543 72.08 10.9343C71.9214 11.2143 71.744 11.471 71.548 11.7043C71.4267 11.8537 71.2494 12.045 71.016 12.2783C70.792 12.5117 70.5494 12.759 70.288 13.0203C70.036 13.2723 69.7934 13.515 69.56 13.7483C69.3267 13.9723 69.1354 14.159 68.986 14.3083C68.846 14.4577 68.776 14.5417 68.776 14.5603C68.776 14.5977 68.8414 14.6257 68.972 14.6443C69.14 14.663 69.3267 14.677 69.532 14.6863C69.7467 14.6957 69.9754 14.7003 70.218 14.7003C70.47 14.7003 70.7174 14.6957 70.96 14.6863C71.212 14.677 71.4547 14.663 71.688 14.6443C71.94 14.6257 72.1407 14.5977 72.29 14.5603C72.4394 14.523 72.5654 14.453 72.668 14.3503C72.78 14.2477 72.8874 14.103 72.99 13.9163C73.0274 13.8603 73.0787 13.795 73.144 13.7203C73.2094 13.6457 73.2794 13.6083 73.354 13.6083C73.41 13.6083 73.4474 13.6317 73.466 13.6783C73.4847 13.725 73.4894 13.7717 73.48 13.8183C73.452 13.9303 73.4054 14.0797 73.34 14.2663C73.2747 14.453 73.2094 14.6537 73.144 14.8683C73.0787 15.0737 73.0274 15.2697 72.99 15.4563C72.9714 15.587 72.9247 15.6757 72.85 15.7223C72.7847 15.7597 72.7287 15.7783 72.682 15.7783ZM77.401 15.9323C76.897 15.9323 76.4583 15.8017 76.085 15.5403C75.721 15.279 75.413 14.9337 75.161 14.5043C74.9183 14.0657 74.7363 13.585 74.615 13.0623C74.4937 12.5397 74.433 12.0217 74.433 11.5083C74.433 10.9763 74.4937 10.4397 74.615 9.89833C74.7363 9.35699 74.923 8.86233 75.175 8.41433C75.427 7.96633 75.749 7.60699 76.141 7.33633C76.533 7.05633 77.0043 6.91633 77.555 6.91633C78.059 6.91633 78.4977 7.04699 78.871 7.30833C79.2443 7.56966 79.5523 7.91966 79.795 8.35833C80.0377 8.78766 80.2197 9.26366 80.341 9.78633C80.4623 10.2997 80.523 10.8083 80.523 11.3123C80.523 11.835 80.4623 12.367 80.341 12.9083C80.229 13.4497 80.047 13.949 79.795 14.4063C79.543 14.8637 79.221 15.2323 78.829 15.5123C78.437 15.7923 77.961 15.9323 77.401 15.9323ZM77.639 15.4703C77.9843 15.4703 78.2597 15.2883 78.465 14.9243C78.6797 14.551 78.8337 14.0703 78.927 13.4823C79.0297 12.885 79.081 12.2457 79.081 11.5643C79.081 11.051 79.0437 10.547 78.969 10.0523C78.8943 9.55766 78.7823 9.10966 78.633 8.70833C78.4837 8.30699 78.297 7.98966 78.073 7.75633C77.849 7.51366 77.5923 7.39233 77.303 7.39233C76.9577 7.39233 76.6823 7.57433 76.477 7.93833C76.2717 8.29299 76.1223 8.76433 76.029 9.35233C75.9357 9.94033 75.889 10.575 75.889 11.2563C75.889 11.7697 75.9263 12.2783 76.001 12.7823C76.0757 13.2863 76.183 13.739 76.323 14.1403C76.4723 14.5417 76.6543 14.8637 76.869 15.1063C77.0837 15.349 77.3403 15.4703 77.639 15.4703ZM87.16 15.7783C87.104 15.7783 86.992 15.7737 86.824 15.7643C86.656 15.7643 86.46 15.7597 86.236 15.7503C86.0213 15.741 85.7973 15.7317 85.564 15.7223C85.3307 15.713 85.116 15.7083 84.92 15.7083C84.7333 15.7083 84.486 15.713 84.178 15.7223C83.8793 15.7317 83.5713 15.7363 83.254 15.7363C82.946 15.7457 82.6753 15.7503 82.442 15.7503C82.218 15.7597 82.0733 15.7643 82.008 15.7643C81.98 15.7643 81.924 15.7363 81.84 15.6803C81.7653 15.6243 81.728 15.573 81.728 15.5263C81.728 15.4703 81.742 15.4283 81.77 15.4003C81.798 15.3723 81.8307 15.3397 81.868 15.3023L84.136 12.8943C84.612 12.3903 84.99 11.849 85.27 11.2703C85.5593 10.6917 85.704 10.085 85.704 9.45033C85.704 8.99299 85.5733 8.62899 85.312 8.35833C85.0507 8.07833 84.724 7.93833 84.332 7.93833C83.968 7.93833 83.6273 8.04099 83.31 8.24633C83.002 8.44233 82.75 8.68966 82.554 8.98833C82.5167 9.04433 82.47 9.09566 82.414 9.14233C82.358 9.18899 82.2973 9.21233 82.232 9.21233C82.1853 9.21233 82.1387 9.17499 82.092 9.10033C82.0547 9.02566 82.036 8.93233 82.036 8.82033C82.036 8.69899 82.106 8.53566 82.246 8.33033C82.386 8.11566 82.582 7.90099 82.834 7.68633C83.086 7.47166 83.3847 7.28966 83.73 7.14033C84.0753 6.99099 84.4487 6.91633 84.85 6.91633C85.3167 6.91633 85.718 7.01899 86.054 7.22433C86.39 7.42033 86.6467 7.69566 86.824 8.05033C87.0013 8.39566 87.09 8.79233 87.09 9.24033C87.09 9.49233 87.0387 9.76766 86.936 10.0663C86.8427 10.365 86.7167 10.6543 86.558 10.9343C86.3993 11.2143 86.222 11.471 86.026 11.7043C85.9047 11.8537 85.7273 12.045 85.494 12.2783C85.27 12.5117 85.0273 12.759 84.766 13.0203C84.514 13.2723 84.2713 13.515 84.038 13.7483C83.8047 13.9723 83.6133 14.159 83.464 14.3083C83.324 14.4577 83.254 14.5417 83.254 14.5603C83.254 14.5977 83.3193 14.6257 83.45 14.6443C83.618 14.663 83.8047 14.677 84.01 14.6863C84.2247 14.6957 84.4533 14.7003 84.696 14.7003C84.948 14.7003 85.1953 14.6957 85.438 14.6863C85.69 14.677 85.9327 14.663 86.166 14.6443C86.418 14.6257 86.6187 14.5977 86.768 14.5603C86.9173 14.523 87.0433 14.453 87.146 14.3503C87.258 14.2477 87.3653 14.103 87.468 13.9163C87.5053 13.8603 87.5567 13.795 87.622 13.7203C87.6873 13.6457 87.7573 13.6083 87.832 13.6083C87.888 13.6083 87.9253 13.6317 87.944 13.6783C87.9627 13.725 87.9673 13.7717 87.958 13.8183C87.93 13.9303 87.8833 14.0797 87.818 14.2663C87.7527 14.453 87.6873 14.6537 87.622 14.8683C87.5567 15.0737 87.5053 15.2697 87.468 15.4563C87.4493 15.587 87.4027 15.6757 87.328 15.7223C87.2627 15.7597 87.2067 15.7783 87.16 15.7783ZM91.333 15.7783C91.2863 15.7783 91.2303 15.7643 91.165 15.7363C91.0997 15.699 91.067 15.6477 91.067 15.5823C91.067 15.5263 91.095 15.4843 91.151 15.4563C91.2163 15.419 91.2817 15.3957 91.347 15.3863C91.7577 15.321 92.033 15.2277 92.173 15.1063C92.313 14.9757 92.383 14.789 92.383 14.5463V13.4263C92.383 13.3797 92.3503 13.347 92.285 13.3283C92.2197 13.3097 92.1777 13.3003 92.159 13.3003C91.8043 13.3003 91.4543 13.3097 91.109 13.3283C90.7637 13.3377 90.4043 13.3517 90.031 13.3703C89.667 13.3797 89.261 13.389 88.813 13.3983C88.7757 13.3983 88.7383 13.3843 88.701 13.3563C88.6637 13.3283 88.645 13.2957 88.645 13.2583C88.645 13.2397 88.659 13.2163 88.687 13.1883C88.7897 13.0577 88.8643 12.9643 88.911 12.9083C88.967 12.8523 89.0137 12.801 89.051 12.7543C89.0883 12.7077 89.135 12.6423 89.191 12.5583L92.789 7.18233C92.8543 7.07966 92.9337 6.98166 93.027 6.88833C93.1203 6.79499 93.209 6.74833 93.293 6.74833H93.517C93.573 6.74833 93.5917 6.78099 93.573 6.84633C93.5637 6.91166 93.5543 6.95366 93.545 6.97233L89.933 12.3343C89.9143 12.3717 89.905 12.409 89.905 12.4463C89.905 12.4743 89.9283 12.4883 89.975 12.4883H92.229C92.2663 12.4883 92.299 12.479 92.327 12.4603C92.3643 12.4323 92.383 12.4043 92.383 12.3763V10.3883C92.383 10.2577 92.3877 10.1737 92.397 10.1363C92.4157 10.0897 92.4623 10.0477 92.537 10.0103C92.7143 9.91699 92.9057 9.85633 93.111 9.82833C93.3163 9.80033 93.461 9.78633 93.545 9.78633C93.6757 9.78633 93.7503 9.87033 93.769 10.0383C93.797 10.197 93.811 10.435 93.811 10.7523V12.4323C93.811 12.4977 93.8343 12.5303 93.881 12.5303C93.993 12.5397 94.0863 12.5443 94.161 12.5443C94.245 12.5443 94.3337 12.5443 94.427 12.5443C94.5577 12.5443 94.6883 12.5443 94.819 12.5443C94.9497 12.535 95.0897 12.5257 95.239 12.5163C95.3417 12.5163 95.393 12.549 95.393 12.6143C95.393 12.689 95.3743 12.7823 95.337 12.8943C95.2997 12.997 95.253 13.0857 95.197 13.1603C95.1503 13.235 95.1177 13.2723 95.099 13.2723C94.9963 13.2723 94.8843 13.2723 94.763 13.2723C94.651 13.263 94.5343 13.2583 94.413 13.2583C94.329 13.2583 94.2543 13.263 94.189 13.2723C94.1237 13.2723 94.063 13.277 94.007 13.2863C93.9697 13.2957 93.9277 13.3097 93.881 13.3283C93.8437 13.347 93.825 13.361 93.825 13.3703V14.5043C93.825 14.775 93.8857 14.9663 94.007 15.0783C94.1377 15.181 94.385 15.2837 94.749 15.3863C94.8143 15.3957 94.875 15.419 94.931 15.4563C94.9963 15.4937 95.029 15.545 95.029 15.6103C95.029 15.6477 95.0057 15.685 94.959 15.7223C94.9123 15.7597 94.8563 15.7783 94.791 15.7783C94.5483 15.7783 94.3337 15.769 94.147 15.7503C93.9697 15.741 93.797 15.7317 93.629 15.7223C93.4703 15.713 93.2837 15.7083 93.069 15.7083C92.845 15.7083 92.649 15.713 92.481 15.7223C92.313 15.7317 92.1403 15.741 91.963 15.7503C91.7857 15.769 91.5757 15.7783 91.333 15.7783Z" fill="#303341"/>
</svg>
