<svg width="14" height="14" viewBox="0 0 14 14" fill="none" xmlns="http://www.w3.org/2000/svg">
<path d="M6.99958 4.30322C6.2842 4.30322 5.59812 4.58741 5.09228 5.09325C4.58643 5.5991 4.30225 6.28518 4.30225 7.00056C4.30225 7.71593 4.58643 8.40201 5.09228 8.90786C5.59812 9.41371 6.2842 9.69789 6.99958 9.69789C7.71496 9.69789 8.40103 9.41371 8.90688 8.90786C9.41273 8.40201 9.69691 7.71593 9.69691 7.00056C9.69691 6.28518 9.41273 5.5991 8.90688 5.09325C8.40103 4.58741 7.71496 4.30322 6.99958 4.30322ZM6.99958 8.75231C6.76946 8.75231 6.54159 8.70698 6.32899 8.61892C6.11639 8.53085 5.92321 8.40178 5.76049 8.23906C5.59777 8.07634 5.4687 7.88316 5.38063 7.67056C5.29257 7.45796 5.24725 7.23009 5.24725 6.99997C5.24725 6.76985 5.29257 6.54199 5.38063 6.32938C5.4687 6.11678 5.59777 5.92361 5.76049 5.76089C5.92321 5.59817 6.11639 5.46909 6.32899 5.38103C6.54159 5.29296 6.76946 5.24764 6.99958 5.24764C7.46433 5.24764 7.91004 5.43226 8.23867 5.76089C8.56729 6.08951 8.75191 6.53522 8.75191 6.99997C8.75191 7.46472 8.56729 7.91043 8.23867 8.23906C7.91004 8.56769 7.46433 8.75231 6.99958 8.75231Z" fill="#7B4C82"/>
<path d="M9.80364 4.83286C10.1509 4.83286 10.4325 4.55132 10.4325 4.20403C10.4325 3.85673 10.1509 3.5752 9.80364 3.5752C9.45634 3.5752 9.1748 3.85673 9.1748 4.20403C9.1748 4.55132 9.45634 4.83286 9.80364 4.83286Z" fill="#7B4C82"/>
<path d="M11.9774 3.56476C11.8425 3.21594 11.6362 2.89917 11.3717 2.63477C11.1072 2.37037 10.7903 2.16418 10.4415 2.02943C10.0334 1.87616 9.60217 1.79331 9.16631 1.78443C8.60456 1.75993 8.42664 1.75293 7.00214 1.75293C5.57764 1.75293 5.39506 1.75293 4.83798 1.78443C4.40251 1.79344 3.97173 1.87629 3.56398 2.02943C3.21511 2.16418 2.89826 2.37037 2.63375 2.63477C2.36925 2.89917 2.16294 3.21594 2.02806 3.56476C1.87499 3.97292 1.79234 4.4041 1.78364 4.83993C1.75856 5.4011 1.75098 5.57901 1.75098 7.0041C1.75098 8.42918 1.75098 8.61001 1.78364 9.16826C1.79239 9.6046 1.87464 10.0351 2.02806 10.444C2.16301 10.7929 2.36941 11.1097 2.63401 11.3741C2.89862 11.6385 3.21558 11.8447 3.56456 11.9793C3.97145 12.1385 4.40246 12.2273 4.83914 12.2418C5.40089 12.2663 5.57881 12.2739 7.00331 12.2739C8.42781 12.2739 8.61039 12.2739 9.16748 12.2418C9.6033 12.2332 10.0345 12.1505 10.4426 11.9974C10.7916 11.8626 11.1085 11.6563 11.373 11.3918C11.6375 11.1273 11.8437 10.8104 11.9786 10.4615C12.132 10.0532 12.2142 9.62268 12.223 9.18635C12.2481 8.62518 12.2556 8.44726 12.2556 7.02218C12.2556 5.5971 12.2556 5.41626 12.223 4.85801C12.216 4.41603 12.1329 3.97855 11.9774 3.56476ZM11.2669 9.1251C11.2636 9.46132 11.2023 9.79445 11.0855 10.1098C10.9975 10.3364 10.8632 10.5421 10.6913 10.714C10.5193 10.8858 10.3135 11.02 10.0868 11.1078C9.77481 11.2234 9.44534 11.2848 9.11264 11.2893C8.55848 11.3149 8.40214 11.3213 6.98114 11.3213C5.55898 11.3213 5.41373 11.3213 4.84906 11.2893C4.51656 11.2847 4.18729 11.2234 3.87548 11.1078C3.64807 11.0204 3.44141 10.8865 3.26874 10.7147C3.09607 10.5428 2.96119 10.3368 2.87273 10.1098C2.75828 9.79765 2.69696 9.46856 2.69131 9.13618C2.66623 8.58201 2.66039 8.42568 2.66039 7.00468C2.66039 5.58368 2.66039 5.43785 2.69131 4.8726C2.69464 4.53657 2.75601 4.20364 2.87273 3.88851C3.05064 3.42826 3.41523 3.06601 3.87548 2.88985C4.18729 2.77432 4.51656 2.71296 4.84906 2.70843C5.40381 2.68335 5.55956 2.67635 6.98114 2.67635C8.40273 2.67635 8.54856 2.67635 9.11264 2.70843C9.44534 2.71289 9.77481 2.77425 10.0868 2.88985C10.3135 2.97779 10.5194 3.11201 10.6914 3.28396C10.8633 3.45591 10.9975 3.6618 11.0855 3.88851C11.1999 4.20063 11.2612 4.52971 11.2669 4.8621C11.292 5.41685 11.2984 5.5726 11.2984 6.99418C11.2984 8.41576 11.2984 8.56801 11.2733 9.12568L11.2669 9.1251Z" fill="#7B4C82"/>
</svg>
