<svg width="80" height="80" viewBox="0 0 80 80" fill="none" xmlns="http://www.w3.org/2000/svg">
<path d="M48.8673 13.6665H20.4645C19.9554 15.8518 18.5566 18.7515 17.2747 21.4091C16.7163 22.5666 16.1801 23.6782 15.7493 24.6648C16.4067 24.6648 16.442 24.6281 16.8892 24.1647C16.9569 24.0945 17.0341 24.0145 17.1243 23.9234C17.599 23.5144 18.0733 23.0972 18.5497 22.6784C22.5732 19.1406 26.7375 15.479 32.4298 15.479H41.0704C35.8692 25.3092 30.3222 35.1385 24.7942 44.9341C22.6759 48.6878 20.5602 52.4368 18.468 56.1787C16.4402 59.7828 14.1381 60.8366 12.501 60.4703C8.4003 59.5519 11.7371 50.6908 17.5895 54.4964L18.7336 52.6856C13.2857 48.578 6.87773 53.5259 6.08433 59.1648C4.85992 67.8778 17.2921 67.8867 22.3944 62.5778C29.3004 65.3822 47.656 68.6332 59.048 64.7064H74.0895V64.0832H73.4802C72.5305 64.0832 71.7736 63.8297 71.2093 63.3245C70.6295 62.8054 70.0791 61.8696 69.5461 60.5172L68.0548 56.556C68.7439 54.3551 68.8247 51.7163 68.1312 48.571C67.4352 49.4336 66.7135 50.2463 65.9672 51.0108L54.7252 21.1502C54.7308 20.8658 54.6325 20.6405 54.3951 20.4807H47.8083C47.6324 20.4807 47.5461 20.6748 47.4689 20.8483C47.4471 20.8974 47.426 20.945 47.4037 20.9859C43.6471 27.6832 41.0252 32.545 38.5672 37.1027L38.567 37.1031C35.1681 43.4054 32.0827 49.1265 26.744 58.3158C27.2291 58.3158 28.2992 58.469 29.486 58.6389C31.4806 58.9244 33.805 59.2572 34.2371 58.9894C34.877 56.2414 45.8227 37.1744 50.7518 28.6694C50.9351 29.2556 51.1304 29.8572 51.3378 30.4738C51.9906 32.42 52.6746 34.3644 53.3725 36.295L57.6798 48.1023H43.659L43.4506 48.7116H57.9159L60.3969 55.5662C50.6751 61.8118 38.1351 62.2318 24.5683 59.0091C29.1962 50.3112 34.0089 41.798 38.8276 33.274C41.6739 28.2391 44.5224 23.2005 47.3361 18.1179C47.5566 17.7213 47.7509 17.4 47.9206 17.1195C48.5806 16.0284 48.8673 15.5544 48.8673 13.6665Z" fill="#7B4C82"/>
</svg>
